M48
;Layer_Color=9474304
;FILE_FORMAT=2:4
METRIC,LZ
;TYPE=PLATED
T1F00S00C0.7112
T2F00S00C0.9000
T3F00S00C1.0000
T4F00S00C1.0500
T5F00S00C1.2500
T6F00S00C1.5000
%
T01
X237084Y610983
X28382Y660005
X252324Y72325
X270908Y791323
X387198Y624699
X53455
X587604Y637399
X612496Y716901
T02
X26035Y6471
Y6731
Y6991
X4064
Y6731
Y6471
X5461
Y6731
Y6991
T03
X37465Y76835
X39965
X42465
T04
X0635Y10795
X0889
X7112Y1143
X7366
X635Y2413
X6096
X1905
X1651
X09525Y59055
X06985
X-0635Y70485
X-0889
X38735Y8763
X41275
X71755Y59055
X74295
X8636Y70485
X889
X41275Y104775
X38735
T05
X66675Y18415
X69215
X1397
X1143
X0254Y6477
X-0
X7874
X8128
X41275Y97155
X38735
T06
X3357Y40894
X5406
M30
