G04*
G04 #@! TF.GenerationSoftware,Altium Limited,Altium Designer,23.0.1 (38)*
G04*
G04 Layer_Color=16711935*
%FSLAX44Y44*%
%MOMM*%
G71*
G04*
G04 #@! TF.SameCoordinates,DBD969FD-5544-4FB8-9625-6CD88A766504*
G04*
G04*
G04 #@! TF.FilePolarity,Negative*
G04*
G01*
G75*
%ADD24R,1.6032X1.6032*%
%ADD25C,1.6032*%
%ADD26C,2.0532*%
%ADD27R,2.0532X2.0532*%
%ADD28C,1.9000*%
%ADD29R,1.9000X1.9000*%
%ADD30R,1.7032X1.7032*%
%ADD31C,1.7032*%
%ADD32C,1.7532*%
%ADD33R,1.7532X1.7532*%
%ADD34C,1.4732*%
D24*
X546100Y647100D02*
D03*
X260350D02*
D03*
X406400D02*
D03*
D25*
X546100Y699100D02*
D03*
Y673100D02*
D03*
X260350Y699100D02*
D03*
Y673100D02*
D03*
X406400Y699100D02*
D03*
Y673100D02*
D03*
D26*
X335700Y408940D02*
D03*
D27*
X540600D02*
D03*
D28*
X412750Y971550D02*
D03*
X-0Y647700D02*
D03*
X114300Y184150D02*
D03*
X692150D02*
D03*
X812800Y647700D02*
D03*
D29*
X387350Y971550D02*
D03*
X25400Y647700D02*
D03*
X139700Y184150D02*
D03*
X666750D02*
D03*
X787400Y647700D02*
D03*
D30*
X424650Y768350D02*
D03*
D31*
X399650D02*
D03*
X374650D02*
D03*
D32*
X412750Y1047750D02*
D03*
X69850Y590550D02*
D03*
X165100Y241300D02*
D03*
X635000D02*
D03*
X742950Y590550D02*
D03*
X387350Y876300D02*
D03*
X-88900Y704850D02*
D03*
X63500Y107950D02*
D03*
X736600Y114300D02*
D03*
X889000Y704850D02*
D03*
D33*
X387350Y1047750D02*
D03*
X95250Y590550D02*
D03*
X190500Y241300D02*
D03*
X609600D02*
D03*
X717550Y590550D02*
D03*
X412750Y876300D02*
D03*
X-63500Y704850D02*
D03*
X88900Y107950D02*
D03*
X711200Y114300D02*
D03*
X863600Y704850D02*
D03*
D34*
X387198Y624699D02*
D03*
X252324Y723250D02*
D03*
X587604Y637399D02*
D03*
X534550Y624699D02*
D03*
X612496Y716901D02*
D03*
X270908Y791323D02*
D03*
X237084Y610983D02*
D03*
X283820Y660005D02*
D03*
M02*
