G04*
G04 #@! TF.GenerationSoftware,Altium Limited,Altium Designer,23.0.1 (38)*
G04*
G04 Layer_Physical_Order=2*
G04 Layer_Color=16711680*
%FSLAX44Y44*%
%MOMM*%
G71*
G04*
G04 #@! TF.SameCoordinates,DBD969FD-5544-4FB8-9625-6CD88A766504*
G04*
G04*
G04 #@! TF.FilePolarity,Positive*
G04*
G01*
G75*
%ADD13C,0.2540*%
%ADD28C,1.9000*%
%ADD29R,1.9000X1.9000*%
%ADD35R,1.4000X1.4000*%
%ADD36C,1.4000*%
%ADD37C,1.8500*%
%ADD38R,1.8500X1.8500*%
%ADD39R,1.5000X1.5000*%
%ADD40C,1.5000*%
%ADD41C,1.5500*%
%ADD42R,1.5500X1.5500*%
%ADD43C,1.2700*%
D13*
X387198Y622413D02*
X503484D01*
X-34188D02*
X387198D01*
X867551Y726299D02*
X876949Y716901D01*
X325222Y900797D02*
X374498Y950073D01*
X164694Y740269D02*
X325222Y900797D01*
X190500Y241300D02*
X354686D01*
X361840Y248454D01*
X449409D01*
X456563Y241300D01*
X609600D01*
X394413Y635113D02*
X406400Y647100D01*
X37987Y635113D02*
X394413D01*
X25400Y647700D02*
X37987Y635113D01*
X406400Y647100D02*
X418289Y658989D01*
X776111D01*
X787400Y647700D01*
X139700Y184150D02*
X267197D01*
X310744Y227697D01*
X361107D01*
X371704Y238294D01*
X405358D01*
X408915Y234737D01*
X436546D01*
X469240Y202043D01*
X648857D01*
X666750Y184150D01*
X-63500Y651725D02*
Y704850D01*
Y651725D02*
X-34188Y622413D01*
X503484D02*
X512380Y624699D01*
X534781Y647100D01*
X387198Y622413D02*
Y624699D01*
X534781Y647100D02*
X546100D01*
X69850Y590550D02*
X292100Y368300D01*
X406795Y253605D01*
X622695D01*
X635000Y241300D01*
X165100D02*
X292100Y368300D01*
X326716Y876300D02*
X387350D01*
X252324Y801909D02*
X326716Y876300D01*
X252324Y723250D02*
Y801909D01*
X-88900Y704850D02*
X-53481Y740269D01*
X374498Y950073D02*
X411836D01*
X426060Y964297D01*
Y1034440D01*
X412750Y1047750D02*
X426060Y1034440D01*
X585318Y726299D02*
X867551D01*
X410820Y900797D02*
X585318Y726299D01*
X325222Y900797D02*
X410820D01*
X-53481Y740269D02*
X164694D01*
X863600Y634605D02*
Y704850D01*
X851154Y622159D02*
X863600Y634605D01*
X631849Y622159D02*
X851154D01*
X606250Y647758D02*
X631849Y622159D01*
X578102Y647758D02*
X606250D01*
X577444Y647100D02*
X578102Y647758D01*
X546100Y647100D02*
X577444D01*
X574904Y624699D02*
X587604Y637399D01*
X534550Y624699D02*
X574904D01*
X876949Y716901D02*
X889000Y704850D01*
X612496Y716901D02*
X876949D01*
X401677Y791323D02*
X424650Y768350D01*
X270908Y791323D02*
X401677D01*
X398413Y890638D02*
X412750Y876300D01*
X325731Y890638D02*
X398413D01*
X242164Y807071D02*
X325731Y890638D01*
X242164Y665286D02*
Y807071D01*
Y665286D02*
X260350Y647100D01*
X90283Y610983D02*
X237084D01*
X69850Y590550D02*
X90283Y610983D01*
X535065Y684135D02*
X546100Y673100D01*
X307950Y684135D02*
X535065D01*
X283820Y660005D02*
X307950Y684135D01*
X654699Y221601D02*
X692150Y184150D01*
X460858Y221601D02*
X654699D01*
X442570Y239889D02*
X460858Y221601D01*
X413035Y239889D02*
X442570D01*
X409550Y243374D02*
X413035Y239889D01*
X369093Y243374D02*
X409550D01*
X360274Y234555D02*
X369093Y243374D01*
X301346Y234555D02*
X360274D01*
X285090Y218299D02*
X301346Y234555D01*
X148449Y218299D02*
X285090D01*
X114300Y184150D02*
X148449Y218299D01*
X260350Y699100D02*
X406400D01*
X546100D01*
D28*
X412750Y971550D02*
D03*
X-0Y647700D02*
D03*
X114300Y184150D02*
D03*
X692150D02*
D03*
X812800Y647700D02*
D03*
D29*
X387350Y971550D02*
D03*
X25400Y647700D02*
D03*
X139700Y184150D02*
D03*
X666750D02*
D03*
X787400Y647700D02*
D03*
D35*
X546100Y647100D02*
D03*
X260350D02*
D03*
X406400D02*
D03*
D36*
X546100Y699100D02*
D03*
Y673100D02*
D03*
X260350Y699100D02*
D03*
Y673100D02*
D03*
X406400Y699100D02*
D03*
Y673100D02*
D03*
D37*
X335700Y408940D02*
D03*
D38*
X540600D02*
D03*
D39*
X424650Y768350D02*
D03*
D40*
X399650D02*
D03*
X374650D02*
D03*
D41*
X412750Y1047750D02*
D03*
X69850Y590550D02*
D03*
X165100Y241300D02*
D03*
X635000D02*
D03*
X742950Y590550D02*
D03*
X387350Y876300D02*
D03*
X-88900Y704850D02*
D03*
X63500Y107950D02*
D03*
X736600Y114300D02*
D03*
X889000Y704850D02*
D03*
D42*
X387350Y1047750D02*
D03*
X95250Y590550D02*
D03*
X190500Y241300D02*
D03*
X609600D02*
D03*
X717550Y590550D02*
D03*
X412750Y876300D02*
D03*
X-63500Y704850D02*
D03*
X88900Y107950D02*
D03*
X711200Y114300D02*
D03*
X863600Y704850D02*
D03*
D43*
X387198Y624699D02*
D03*
X252324Y723250D02*
D03*
X587604Y637399D02*
D03*
X534550Y624699D02*
D03*
X612496Y716901D02*
D03*
X270908Y791323D02*
D03*
X237084Y610983D02*
D03*
X283820Y660005D02*
D03*
M02*
