G04*
G04 #@! TF.GenerationSoftware,Altium Limited,Altium Designer,23.0.1 (38)*
G04*
G04 Layer_Color=2752767*
%FSLAX44Y44*%
%MOMM*%
G71*
G04*
G04 #@! TF.SameCoordinates,DBD969FD-5544-4FB8-9625-6CD88A766504*
G04*
G04*
G04 #@! TF.FilePolarity,Positive*
G04*
G01*
G75*
%ADD44C,0.1693*%
%ADD45C,0.1270*%
D44*
X551180Y647100D02*
G03*
X551180Y647100I-5080J0D01*
G01*
Y699100D02*
G03*
X551180Y699100I-5080J0D01*
G01*
Y673100D02*
G03*
X551180Y673100I-5080J0D01*
G01*
X265430Y647100D02*
G03*
X265430Y647100I-5080J0D01*
G01*
Y699100D02*
G03*
X265430Y699100I-5080J0D01*
G01*
Y673100D02*
G03*
X265430Y673100I-5080J0D01*
G01*
X411480Y647100D02*
G03*
X411480Y647100I-5080J0D01*
G01*
Y699100D02*
G03*
X411480Y699100I-5080J0D01*
G01*
Y673100D02*
G03*
X411480Y673100I-5080J0D01*
G01*
D45*
X335700Y403860D02*
X330620Y414020D01*
X340780D01*
X335700Y403860D01*
X540600D02*
X535520Y414020D01*
X545680D01*
X540600Y403860D01*
X407670Y966470D02*
X410210Y971550D01*
X407670Y976630D01*
X412750Y974090D01*
X417830Y976630D01*
X415290Y971550D01*
X417830Y966470D01*
X412750Y969010D01*
X407670Y966470D01*
X382270D02*
X384810Y971550D01*
X382270Y976630D01*
X387350Y974090D01*
X392430Y976630D01*
X389890Y971550D01*
X392430Y966470D01*
X387350Y969010D01*
X382270Y966470D01*
X419570Y763270D02*
Y773430D01*
X429730D01*
Y763270D01*
X419570D01*
X394570D02*
Y773430D01*
X404730D01*
Y763270D01*
X394570D01*
X369570D02*
Y773430D01*
X379730D01*
Y763270D01*
X369570D01*
X412750Y1042670D02*
X415290Y1045210D01*
X417830D01*
X415290Y1047750D01*
X417830Y1050290D01*
X415290D01*
X412750Y1052830D01*
X410210Y1050290D01*
X407670D01*
X410210Y1047750D01*
X407670Y1045210D01*
X410210D01*
X412750Y1042670D01*
X387350D02*
X389890Y1045210D01*
X392430D01*
X389890Y1047750D01*
X392430Y1050290D01*
X389890D01*
X387350Y1052830D01*
X384810Y1050290D01*
X382270D01*
X384810Y1047750D01*
X382270Y1045210D01*
X384810D01*
X387350Y1042670D01*
X-5080Y642620D02*
X-2540Y647700D01*
X-5080Y652780D01*
X-0Y650240D01*
X5080Y652780D01*
X2540Y647700D01*
X5080Y642620D01*
X-0Y645160D01*
X-5080Y642620D01*
X20320D02*
X22860Y647700D01*
X20320Y652780D01*
X25400Y650240D01*
X30480Y652780D01*
X27940Y647700D01*
X30480Y642620D01*
X25400Y645160D01*
X20320Y642620D01*
X109220Y179070D02*
X111760Y184150D01*
X109220Y189230D01*
X114300Y186690D01*
X119380Y189230D01*
X116840Y184150D01*
X119380Y179070D01*
X114300Y181610D01*
X109220Y179070D01*
X134620D02*
X137160Y184150D01*
X134620Y189230D01*
X139700Y186690D01*
X144780Y189230D01*
X142240Y184150D01*
X144780Y179070D01*
X139700Y181610D01*
X134620Y179070D01*
X687070D02*
X689610Y184150D01*
X687070Y189230D01*
X692150Y186690D01*
X697230Y189230D01*
X694690Y184150D01*
X697230Y179070D01*
X692150Y181610D01*
X687070Y179070D01*
X661670D02*
X664210Y184150D01*
X661670Y189230D01*
X666750Y186690D01*
X671830Y189230D01*
X669290Y184150D01*
X671830Y179070D01*
X666750Y181610D01*
X661670Y179070D01*
X807720Y642620D02*
X810260Y647700D01*
X807720Y652780D01*
X812800Y650240D01*
X817880Y652780D01*
X815340Y647700D01*
X817880Y642620D01*
X812800Y645160D01*
X807720Y642620D01*
X782320D02*
X784860Y647700D01*
X782320Y652780D01*
X787400Y650240D01*
X792480Y652780D01*
X789940Y647700D01*
X792480Y642620D01*
X787400Y645160D01*
X782320Y642620D01*
X69850Y585470D02*
X72390Y588010D01*
X74930D01*
X72390Y590550D01*
X74930Y593090D01*
X72390D01*
X69850Y595630D01*
X67310Y593090D01*
X64770D01*
X67310Y590550D01*
X64770Y588010D01*
X67310D01*
X69850Y585470D01*
X95250D02*
X97790Y588010D01*
X100330D01*
X97790Y590550D01*
X100330Y593090D01*
X97790D01*
X95250Y595630D01*
X92710Y593090D01*
X90170D01*
X92710Y590550D01*
X90170Y588010D01*
X92710D01*
X95250Y585470D01*
X165100Y236220D02*
X167640Y238760D01*
X170180D01*
X167640Y241300D01*
X170180Y243840D01*
X167640D01*
X165100Y246380D01*
X162560Y243840D01*
X160020D01*
X162560Y241300D01*
X160020Y238760D01*
X162560D01*
X165100Y236220D01*
X190500D02*
X193040Y238760D01*
X195580D01*
X193040Y241300D01*
X195580Y243840D01*
X193040D01*
X190500Y246380D01*
X187960Y243840D01*
X185420D01*
X187960Y241300D01*
X185420Y238760D01*
X187960D01*
X190500Y236220D01*
X635000D02*
X637540Y238760D01*
X640080D01*
X637540Y241300D01*
X640080Y243840D01*
X637540D01*
X635000Y246380D01*
X632460Y243840D01*
X629920D01*
X632460Y241300D01*
X629920Y238760D01*
X632460D01*
X635000Y236220D01*
X609600D02*
X612140Y238760D01*
X614680D01*
X612140Y241300D01*
X614680Y243840D01*
X612140D01*
X609600Y246380D01*
X607060Y243840D01*
X604520D01*
X607060Y241300D01*
X604520Y238760D01*
X607060D01*
X609600Y236220D01*
X742950Y585470D02*
X745490Y588010D01*
X748030D01*
X745490Y590550D01*
X748030Y593090D01*
X745490D01*
X742950Y595630D01*
X740410Y593090D01*
X737870D01*
X740410Y590550D01*
X737870Y588010D01*
X740410D01*
X742950Y585470D01*
X717550D02*
X720090Y588010D01*
X722630D01*
X720090Y590550D01*
X722630Y593090D01*
X720090D01*
X717550Y595630D01*
X715010Y593090D01*
X712470D01*
X715010Y590550D01*
X712470Y588010D01*
X715010D01*
X717550Y585470D01*
X387350Y871220D02*
X389890Y873760D01*
X392430D01*
X389890Y876300D01*
X392430Y878840D01*
X389890D01*
X387350Y881380D01*
X384810Y878840D01*
X382270D01*
X384810Y876300D01*
X382270Y873760D01*
X384810D01*
X387350Y871220D01*
X412750D02*
X415290Y873760D01*
X417830D01*
X415290Y876300D01*
X417830Y878840D01*
X415290D01*
X412750Y881380D01*
X410210Y878840D01*
X407670D01*
X410210Y876300D01*
X407670Y873760D01*
X410210D01*
X412750Y871220D01*
X-88900Y699770D02*
X-86360Y702310D01*
X-83820D01*
X-86360Y704850D01*
X-83820Y707390D01*
X-86360D01*
X-88900Y709930D01*
X-91440Y707390D01*
X-93980D01*
X-91440Y704850D01*
X-93980Y702310D01*
X-91440D01*
X-88900Y699770D01*
X-63500D02*
X-60960Y702310D01*
X-58420D01*
X-60960Y704850D01*
X-58420Y707390D01*
X-60960D01*
X-63500Y709930D01*
X-66040Y707390D01*
X-68580D01*
X-66040Y704850D01*
X-68580Y702310D01*
X-66040D01*
X-63500Y699770D01*
X63500Y102870D02*
X66040Y105410D01*
X68580D01*
X66040Y107950D01*
X68580Y110490D01*
X66040D01*
X63500Y113030D01*
X60960Y110490D01*
X58420D01*
X60960Y107950D01*
X58420Y105410D01*
X60960D01*
X63500Y102870D01*
X88900D02*
X91440Y105410D01*
X93980D01*
X91440Y107950D01*
X93980Y110490D01*
X91440D01*
X88900Y113030D01*
X86360Y110490D01*
X83820D01*
X86360Y107950D01*
X83820Y105410D01*
X86360D01*
X88900Y102870D01*
X736600Y109220D02*
X739140Y111760D01*
X741680D01*
X739140Y114300D01*
X741680Y116840D01*
X739140D01*
X736600Y119380D01*
X734060Y116840D01*
X731520D01*
X734060Y114300D01*
X731520Y111760D01*
X734060D01*
X736600Y109220D01*
X711200D02*
X713740Y111760D01*
X716280D01*
X713740Y114300D01*
X716280Y116840D01*
X713740D01*
X711200Y119380D01*
X708660Y116840D01*
X706120D01*
X708660Y114300D01*
X706120Y111760D01*
X708660D01*
X711200Y109220D01*
X889000Y699770D02*
X891540Y702310D01*
X894080D01*
X891540Y704850D01*
X894080Y707390D01*
X891540D01*
X889000Y709930D01*
X886460Y707390D01*
X883920D01*
X886460Y704850D01*
X883920Y702310D01*
X886460D01*
X889000Y699770D01*
X863600D02*
X866140Y702310D01*
X868680D01*
X866140Y704850D01*
X868680Y707390D01*
X866140D01*
X863600Y709930D01*
X861060Y707390D01*
X858520D01*
X861060Y704850D01*
X858520Y702310D01*
X861060D01*
X863600Y699770D01*
X384658Y622159D02*
Y619619D01*
X389738D01*
Y622159D01*
X392278D01*
Y627239D01*
X389738D01*
Y629779D01*
X384658D01*
Y627239D01*
X382118D01*
Y622159D01*
X384658D01*
X249784Y720710D02*
Y718170D01*
X254864D01*
Y720710D01*
X257404D01*
Y725790D01*
X254864D01*
Y728330D01*
X249784D01*
Y725790D01*
X247244D01*
Y720710D01*
X249784D01*
X585064Y634859D02*
Y632319D01*
X590144D01*
Y634859D01*
X592684D01*
Y639939D01*
X590144D01*
Y642479D01*
X585064D01*
Y639939D01*
X582524D01*
Y634859D01*
X585064D01*
X532010Y622159D02*
Y619619D01*
X537090D01*
Y622159D01*
X539630D01*
Y627239D01*
X537090D01*
Y629779D01*
X532010D01*
Y627239D01*
X529470D01*
Y622159D01*
X532010D01*
X609956Y714361D02*
Y711821D01*
X615036D01*
Y714361D01*
X617576D01*
Y719441D01*
X615036D01*
Y721981D01*
X609956D01*
Y719441D01*
X607416D01*
Y714361D01*
X609956D01*
X268368Y788783D02*
Y786243D01*
X273448D01*
Y788783D01*
X275988D01*
Y793863D01*
X273448D01*
Y796403D01*
X268368D01*
Y793863D01*
X265828D01*
Y788783D01*
X268368D01*
X234544Y608443D02*
Y605903D01*
X239624D01*
Y608443D01*
X242164D01*
Y613523D01*
X239624D01*
Y616063D01*
X234544D01*
Y613523D01*
X232004D01*
Y608443D01*
X234544D01*
X281280Y657465D02*
Y654925D01*
X286360D01*
Y657465D01*
X288900D01*
Y662545D01*
X286360D01*
Y665085D01*
X281280D01*
Y662545D01*
X278740D01*
Y657465D01*
X281280D01*
M02*
