G04*
G04 #@! TF.GenerationSoftware,Altium Limited,Altium Designer,23.0.1 (38)*
G04*
G04 Layer_Color=65535*
%FSLAX44Y44*%
%MOMM*%
G71*
G04*
G04 #@! TF.SameCoordinates,DBD969FD-5544-4FB8-9625-6CD88A766504*
G04*
G04*
G04 #@! TF.FilePolarity,Positive*
G04*
G01*
G75*
%ADD10C,0.2000*%
%ADD11C,0.2500*%
%ADD12C,0.1500*%
%ADD13C,0.2540*%
D10*
X557096Y652331D02*
G03*
X559450Y653760I-10996J20769D01*
G01*
Y692440D02*
G03*
X556039Y694395I-13350J-19340D01*
G01*
X536157Y694393D02*
G03*
X535100Y652333I9943J-21293D01*
G01*
X373800Y955550D02*
G03*
X373800Y987550I26260J16000D01*
G01*
X429275Y1047750D02*
G03*
X429275Y1047750I-29225J0D01*
G01*
X38950Y663700D02*
G03*
X38950Y631700I-26260J-16000D01*
G01*
X153250Y200150D02*
G03*
X153250Y168150I-26260J-16000D01*
G01*
X653200Y168150D02*
G03*
X653200Y200150I26260J16000D01*
G01*
X773850Y631700D02*
G03*
X773850Y663700I26260J16000D01*
G01*
X111775Y590550D02*
G03*
X111775Y590550I-29225J0D01*
G01*
X207025Y241300D02*
G03*
X207025Y241300I-29225J0D01*
G01*
X651525Y241300D02*
G03*
X651525Y241300I-29225J0D01*
G01*
X759475Y590550D02*
G03*
X759475Y590550I-29225J0D01*
G01*
X429275Y876300D02*
G03*
X429275Y876300I-29225J0D01*
G01*
X-46975Y704850D02*
G03*
X-46975Y704850I-29225J0D01*
G01*
X105425Y107950D02*
G03*
X105425Y107950I-29225J0D01*
G01*
X753125Y114300D02*
G03*
X753125Y114300I-29225J0D01*
G01*
X905525Y704850D02*
G03*
X905525Y704850I-29225J0D01*
G01*
X271346Y652331D02*
G03*
X273700Y653760I-10996J20769D01*
G01*
Y692440D02*
G03*
X270289Y694395I-13350J-19340D01*
G01*
X250407Y694393D02*
G03*
X249350Y652333I9943J-21293D01*
G01*
X417396Y652331D02*
G03*
X419750Y653760I-10996J20769D01*
G01*
Y692440D02*
G03*
X416339Y694395I-13350J-19340D01*
G01*
X396457Y694393D02*
G03*
X395400Y652333I9943J-21293D01*
G01*
X559450Y653760D02*
Y692440D01*
X373800Y955550D02*
Y987550D01*
X341650Y748350D02*
X457650D01*
X341650D02*
Y788350D01*
X457650D01*
Y748350D02*
Y788350D01*
X356870Y1041400D02*
Y1054100D01*
X350520Y1047750D02*
X363220D01*
X38950Y631700D02*
Y663700D01*
X153250Y168150D02*
Y200150D01*
X653200Y168150D02*
Y200150D01*
X773850Y631700D02*
Y663700D01*
X125730Y584200D02*
Y596900D01*
X119380Y590550D02*
X132080D01*
X220980Y234950D02*
Y247650D01*
X214630Y241300D02*
X227330D01*
X579120Y234950D02*
Y247650D01*
X572770Y241300D02*
X585470D01*
X687070Y584200D02*
Y596900D01*
X680720Y590550D02*
X693420D01*
X443230Y869950D02*
Y882650D01*
X436880Y876300D02*
X449580D01*
X-33020Y698500D02*
Y711200D01*
X-39370Y704850D02*
X-26670D01*
X119380Y101600D02*
Y114300D01*
X113030Y107950D02*
X125730D01*
X680720D02*
Y120650D01*
X674370Y114300D02*
X687070D01*
X833120Y698500D02*
Y711200D01*
X826770Y704850D02*
X839470D01*
X273700Y653760D02*
Y692440D01*
X419750Y653760D02*
Y692440D01*
D11*
X547350Y634600D02*
G03*
X547350Y634600I-1250J0D01*
G01*
X565100Y408960D02*
G03*
X565100Y408960I-1250J0D01*
G01*
X425900Y741850D02*
G03*
X425900Y741850I-1250J0D01*
G01*
X261600Y634600D02*
G03*
X261600Y634600I-1250J0D01*
G01*
X407650D02*
G03*
X407650Y634600I-1250J0D01*
G01*
D12*
X582200Y738450D02*
X586200D01*
X540550Y596050D02*
X546550D01*
X540550Y585050D02*
X546550D01*
X261150Y596050D02*
X267150D01*
X261150Y585050D02*
X267150D01*
X400850Y596050D02*
X406850D01*
X400850Y585050D02*
X406850D01*
X201200Y590550D02*
X205200D01*
X249500Y766350D02*
Y770350D01*
D13*
X594970Y614793D02*
Y630028D01*
X602588D01*
X605127Y627489D01*
Y622411D01*
X602588Y619871D01*
X594970D01*
X600048D02*
X605127Y614793D01*
X620362Y630028D02*
X615283Y627489D01*
X610205Y622411D01*
Y617332D01*
X612744Y614793D01*
X617823D01*
X620362Y617332D01*
Y619871D01*
X617823Y622411D01*
X610205D01*
X582016Y754747D02*
Y769982D01*
X589633D01*
X592173Y767443D01*
Y762365D01*
X589633Y759825D01*
X582016D01*
X587094D02*
X592173Y754747D01*
X607408Y769982D02*
X597251D01*
Y762365D01*
X602329Y764904D01*
X604869D01*
X607408Y762365D01*
Y757286D01*
X604869Y754747D01*
X599790D01*
X597251Y757286D01*
X534007Y717408D02*
Y727565D01*
X531468Y730104D01*
X526389D01*
X523850Y727565D01*
Y717408D01*
X526389Y714869D01*
X531468D01*
X528928Y719947D02*
X534007Y714869D01*
X531468D02*
X534007Y717408D01*
X539085Y727565D02*
X541624Y730104D01*
X546703D01*
X549242Y727565D01*
Y725026D01*
X546703Y722486D01*
X544163D01*
X546703D01*
X549242Y719947D01*
Y717408D01*
X546703Y714869D01*
X541624D01*
X539085Y717408D01*
X261211Y571862D02*
X256132D01*
X258671D01*
Y559166D01*
X256132Y556627D01*
X253593D01*
X251054Y559166D01*
X266289Y556627D02*
X271367D01*
X268828D01*
Y571862D01*
X266289Y569323D01*
X336556Y1017268D02*
Y1002032D01*
X344174D01*
X346713Y1004572D01*
Y1014728D01*
X344174Y1017268D01*
X336556D01*
X351791Y1002032D02*
X356870D01*
X354330D01*
Y1017268D01*
X351791Y1014728D01*
X364487D02*
X367026Y1017268D01*
X372105D01*
X374644Y1014728D01*
Y1004572D01*
X372105Y1002032D01*
X367026D01*
X364487Y1004572D01*
Y1014728D01*
X353159Y809861D02*
X350620Y812400D01*
X345541D01*
X343002Y809861D01*
Y807322D01*
X345541Y804782D01*
X350620D01*
X353159Y802243D01*
Y799704D01*
X350620Y797165D01*
X345541D01*
X343002Y799704D01*
X358237Y812400D02*
Y797165D01*
X363315Y802243D01*
X368394Y797165D01*
Y812400D01*
X373472Y797165D02*
X378550D01*
X376011D01*
Y812400D01*
X373472Y809861D01*
X541119Y619615D02*
X538579Y622154D01*
X533501D01*
X530962Y619615D01*
Y609458D01*
X533501Y606919D01*
X538579D01*
X541119Y609458D01*
X546197Y619615D02*
X548736Y622154D01*
X553815D01*
X556354Y619615D01*
Y617076D01*
X553815Y614537D01*
X551275D01*
X553815D01*
X556354Y611997D01*
Y609458D01*
X553815Y606919D01*
X548736D01*
X546197Y609458D01*
X352146Y1101198D02*
Y1085963D01*
X359763D01*
X362303Y1088502D01*
Y1098659D01*
X359763Y1101198D01*
X352146D01*
X377538Y1098659D02*
X374999Y1101198D01*
X369920D01*
X367381Y1098659D01*
Y1096120D01*
X369920Y1093580D01*
X374999D01*
X377538Y1091041D01*
Y1088502D01*
X374999Y1085963D01*
X369920D01*
X367381Y1088502D01*
X382616Y1085963D02*
X387695D01*
X385155D01*
Y1101198D01*
X382616Y1098659D01*
X405469Y1101198D02*
X395312D01*
Y1093580D01*
X400390Y1096120D01*
X402930D01*
X405469Y1093580D01*
Y1088502D01*
X402930Y1085963D01*
X397851D01*
X395312Y1088502D01*
X261719Y619615D02*
X259179Y622154D01*
X254101D01*
X251562Y619615D01*
Y609458D01*
X254101Y606919D01*
X259179D01*
X261719Y609458D01*
X266797Y606919D02*
X271875D01*
X269336D01*
Y622154D01*
X266797Y619615D01*
X401419D02*
X398880Y622154D01*
X393801D01*
X391262Y619615D01*
Y609458D01*
X393801Y606919D01*
X398880D01*
X401419Y609458D01*
X416654Y606919D02*
X406497D01*
X416654Y617076D01*
Y619615D01*
X414115Y622154D01*
X409036D01*
X406497Y619615D01*
X-17424Y703180D02*
Y687945D01*
X-9807D01*
X-7267Y690484D01*
Y700641D01*
X-9807Y703180D01*
X-17424D01*
X7968D02*
X2889Y700641D01*
X-2189Y695563D01*
Y690484D01*
X350Y687945D01*
X5429D01*
X7968Y690484D01*
Y693023D01*
X5429Y695563D01*
X-2189D01*
X96876Y239630D02*
Y224395D01*
X104494D01*
X107033Y226934D01*
Y237091D01*
X104494Y239630D01*
X96876D01*
X112111D02*
X122268D01*
Y237091D01*
X112111Y226934D01*
Y224395D01*
X603254Y191768D02*
Y176532D01*
X610872D01*
X613411Y179072D01*
Y189228D01*
X610872Y191768D01*
X603254D01*
X618489Y189228D02*
X621028Y191768D01*
X626107D01*
X628646Y189228D01*
Y186689D01*
X626107Y184150D01*
X628646Y181611D01*
Y179072D01*
X626107Y176532D01*
X621028D01*
X618489Y179072D01*
Y181611D01*
X621028Y184150D01*
X618489Y186689D01*
Y189228D01*
X621028Y184150D02*
X626107D01*
X769976Y703180D02*
Y687945D01*
X777594D01*
X780133Y690484D01*
Y700641D01*
X777594Y703180D01*
X769976D01*
X785211Y690484D02*
X787750Y687945D01*
X792829D01*
X795368Y690484D01*
Y700641D01*
X792829Y703180D01*
X787750D01*
X785211Y700641D01*
Y698102D01*
X787750Y695563D01*
X795368D01*
X54712Y643998D02*
Y628763D01*
X62330D01*
X64869Y631302D01*
Y641459D01*
X62330Y643998D01*
X54712D01*
X80104Y641459D02*
X77565Y643998D01*
X72486D01*
X69947Y641459D01*
Y638920D01*
X72486Y636381D01*
X77565D01*
X80104Y633841D01*
Y631302D01*
X77565Y628763D01*
X72486D01*
X69947Y631302D01*
X85182Y628763D02*
X90260D01*
X87721D01*
Y643998D01*
X85182Y641459D01*
X149962Y294748D02*
Y279513D01*
X157579D01*
X160119Y282052D01*
Y292209D01*
X157579Y294748D01*
X149962D01*
X175354Y292209D02*
X172815Y294748D01*
X167736D01*
X165197Y292209D01*
Y289670D01*
X167736Y287131D01*
X172815D01*
X175354Y284591D01*
Y282052D01*
X172815Y279513D01*
X167736D01*
X165197Y282052D01*
X190589Y279513D02*
X180432D01*
X190589Y289670D01*
Y292209D01*
X188050Y294748D01*
X182971D01*
X180432Y292209D01*
X574396Y294748D02*
Y279513D01*
X582014D01*
X584553Y282052D01*
Y292209D01*
X582014Y294748D01*
X574396D01*
X599788Y292209D02*
X597249Y294748D01*
X592170D01*
X589631Y292209D01*
Y289670D01*
X592170Y287131D01*
X597249D01*
X599788Y284591D01*
Y282052D01*
X597249Y279513D01*
X592170D01*
X589631Y282052D01*
X604866Y292209D02*
X607405Y294748D01*
X612484D01*
X615023Y292209D01*
Y289670D01*
X612484Y287131D01*
X609944D01*
X612484D01*
X615023Y284591D01*
Y282052D01*
X612484Y279513D01*
X607405D01*
X604866Y282052D01*
X682346Y643998D02*
Y628763D01*
X689964D01*
X692503Y631302D01*
Y641459D01*
X689964Y643998D01*
X682346D01*
X707738Y641459D02*
X705199Y643998D01*
X700120D01*
X697581Y641459D01*
Y638920D01*
X700120Y636381D01*
X705199D01*
X707738Y633841D01*
Y631302D01*
X705199Y628763D01*
X700120D01*
X697581Y631302D01*
X720434Y628763D02*
Y643998D01*
X712816Y636381D01*
X722973D01*
X372212Y929748D02*
Y914513D01*
X379829D01*
X382369Y917052D01*
Y927209D01*
X379829Y929748D01*
X372212D01*
X397604Y927209D02*
X395065Y929748D01*
X389986D01*
X387447Y927209D01*
Y924670D01*
X389986Y922131D01*
X395065D01*
X397604Y919591D01*
Y917052D01*
X395065Y914513D01*
X389986D01*
X387447Y917052D01*
X412839Y929748D02*
X402682D01*
Y922131D01*
X407761Y924670D01*
X410300D01*
X412839Y922131D01*
Y917052D01*
X410300Y914513D01*
X405221D01*
X402682Y917052D01*
X-104038Y758298D02*
Y743063D01*
X-96420D01*
X-93881Y745602D01*
Y755759D01*
X-96420Y758298D01*
X-104038D01*
X-78646Y755759D02*
X-81185Y758298D01*
X-86264D01*
X-88803Y755759D01*
Y753220D01*
X-86264Y750680D01*
X-81185D01*
X-78646Y748141D01*
Y745602D01*
X-81185Y743063D01*
X-86264D01*
X-88803Y745602D01*
X-73568Y743063D02*
X-68489D01*
X-71029D01*
Y758298D01*
X-73568Y755759D01*
X-60872Y743063D02*
X-55794D01*
X-58333D01*
Y758298D01*
X-60872Y755759D01*
X106689Y140968D02*
Y125732D01*
X114306D01*
X116845Y128272D01*
Y138428D01*
X114306Y140968D01*
X106689D01*
X132080Y138428D02*
X129541Y140968D01*
X124463D01*
X121924Y138428D01*
Y135889D01*
X124463Y133350D01*
X129541D01*
X132080Y130811D01*
Y128272D01*
X129541Y125732D01*
X124463D01*
X121924Y128272D01*
X137159Y125732D02*
X142237D01*
X139698D01*
Y140968D01*
X137159Y138428D01*
X160011Y125732D02*
X149855D01*
X160011Y135889D01*
Y138428D01*
X157472Y140968D01*
X152394D01*
X149855Y138428D01*
X627389Y140968D02*
Y125732D01*
X635006D01*
X637545Y128272D01*
Y138428D01*
X635006Y140968D01*
X627389D01*
X652780Y138428D02*
X650241Y140968D01*
X645163D01*
X642624Y138428D01*
Y135889D01*
X645163Y133350D01*
X650241D01*
X652780Y130811D01*
Y128272D01*
X650241Y125732D01*
X645163D01*
X642624Y128272D01*
X657859Y125732D02*
X662937D01*
X660398D01*
Y140968D01*
X657859Y138428D01*
X670555D02*
X673094Y140968D01*
X678172D01*
X680711Y138428D01*
Y135889D01*
X678172Y133350D01*
X675633D01*
X678172D01*
X680711Y130811D01*
Y128272D01*
X678172Y125732D01*
X673094D01*
X670555Y128272D01*
X828396Y758298D02*
Y743063D01*
X836013D01*
X838553Y745602D01*
Y755759D01*
X836013Y758298D01*
X828396D01*
X853788Y755759D02*
X851249Y758298D01*
X846170D01*
X843631Y755759D01*
Y753220D01*
X846170Y750680D01*
X851249D01*
X853788Y748141D01*
Y745602D01*
X851249Y743063D01*
X846170D01*
X843631Y745602D01*
X858866Y743063D02*
X863944D01*
X861405D01*
Y758298D01*
X858866Y755759D01*
X879180Y743063D02*
Y758298D01*
X871562Y750680D01*
X881719D01*
X248257Y717408D02*
Y727565D01*
X245718Y730104D01*
X240639D01*
X238100Y727565D01*
Y717408D01*
X240639Y714869D01*
X245718D01*
X243178Y719947D02*
X248257Y714869D01*
X245718D02*
X248257Y717408D01*
X253335Y714869D02*
X258413D01*
X255874D01*
Y730104D01*
X253335Y727565D01*
X394307Y717408D02*
Y727565D01*
X391768Y730104D01*
X386689D01*
X384150Y727565D01*
Y717408D01*
X386689Y714869D01*
X391768D01*
X389228Y719947D02*
X394307Y714869D01*
X391768D02*
X394307Y717408D01*
X409542Y714869D02*
X399385D01*
X409542Y725026D01*
Y727565D01*
X407003Y730104D01*
X401924D01*
X399385Y727565D01*
X201016Y606919D02*
Y622154D01*
X208633D01*
X211173Y619615D01*
Y614537D01*
X208633Y611997D01*
X201016D01*
X206094D02*
X211173Y606919D01*
X216251D02*
X221329D01*
X218790D01*
Y622154D01*
X216251Y619615D01*
X194920Y754493D02*
Y769728D01*
X202537D01*
X205077Y767189D01*
Y762111D01*
X202537Y759571D01*
X194920D01*
X199998D02*
X205077Y754493D01*
X220312D02*
X210155D01*
X220312Y764650D01*
Y767189D01*
X217773Y769728D01*
X212694D01*
X210155Y767189D01*
X243180Y780655D02*
Y795890D01*
X250798D01*
X253337Y793351D01*
Y788272D01*
X250798Y785733D01*
X243180D01*
X248258D02*
X253337Y780655D01*
X258415Y793351D02*
X260954Y795890D01*
X266033D01*
X268572Y793351D01*
Y790812D01*
X266033Y788272D01*
X263493D01*
X266033D01*
X268572Y785733D01*
Y783194D01*
X266033Y780655D01*
X260954D01*
X258415Y783194D01*
X525628Y786751D02*
Y801986D01*
X533246D01*
X535785Y799447D01*
Y794369D01*
X533246Y791829D01*
X525628D01*
X530706D02*
X535785Y786751D01*
X548481D02*
Y801986D01*
X540863Y794369D01*
X551020D01*
M02*
