G04*
G04 #@! TF.GenerationSoftware,Altium Limited,Altium Designer,23.0.1 (38)*
G04*
G04 Layer_Color=128*
%FSLAX44Y44*%
%MOMM*%
G71*
G04*
G04 #@! TF.SameCoordinates,DBD969FD-5544-4FB8-9625-6CD88A766504*
G04*
G04*
G04 #@! TF.FilePolarity,Positive*
G04*
G01*
G75*
%ADD45C,0.1270*%
D45*
X541600Y647100D02*
X550600D01*
X546100Y642600D02*
Y651600D01*
X541600Y699100D02*
X550600D01*
X546100Y694600D02*
Y703600D01*
X541600Y673100D02*
X550600D01*
X546100Y668600D02*
Y677600D01*
X328200Y408940D02*
X343200D01*
X335700Y401440D02*
Y416440D01*
X533100Y408940D02*
X548100D01*
X540600Y401440D02*
Y416440D01*
X406500Y971550D02*
X419000D01*
X412750Y965300D02*
Y977800D01*
X381100Y971550D02*
X393600D01*
X387350Y965300D02*
Y977800D01*
X419650Y768350D02*
X429650D01*
X424650Y763350D02*
Y773350D01*
X394650Y768350D02*
X404650D01*
X399650Y763350D02*
Y773350D01*
X369650Y768350D02*
X379650D01*
X374650Y763350D02*
Y773350D01*
X407500Y1047750D02*
X418000D01*
X412750Y1042500D02*
Y1053000D01*
X382100Y1047750D02*
X392600D01*
X387350Y1042500D02*
Y1053000D01*
X-6250Y647700D02*
X6250D01*
X-0Y641450D02*
Y653950D01*
X19150Y647700D02*
X31650D01*
X25400Y641450D02*
Y653950D01*
X108050Y184150D02*
X120550D01*
X114300Y177900D02*
Y190400D01*
X133450Y184150D02*
X145950D01*
X139700Y177900D02*
Y190400D01*
X685900Y184150D02*
X698400D01*
X692150Y177900D02*
Y190400D01*
X660500Y184150D02*
X673000D01*
X666750Y177900D02*
Y190400D01*
X806550Y647700D02*
X819050D01*
X812800Y641450D02*
Y653950D01*
X781150Y647700D02*
X793650D01*
X787400Y641450D02*
Y653950D01*
X64600Y590550D02*
X75100D01*
X69850Y585300D02*
Y595800D01*
X90000Y590550D02*
X100500D01*
X95250Y585300D02*
Y595800D01*
X159850Y241300D02*
X170350D01*
X165100Y236050D02*
Y246550D01*
X185250Y241300D02*
X195750D01*
X190500Y236050D02*
Y246550D01*
X629750Y241300D02*
X640250D01*
X635000Y236050D02*
Y246550D01*
X604350Y241300D02*
X614850D01*
X609600Y236050D02*
Y246550D01*
X737700Y590550D02*
X748200D01*
X742950Y585300D02*
Y595800D01*
X712300Y590550D02*
X722800D01*
X717550Y585300D02*
Y595800D01*
X382100Y876300D02*
X392600D01*
X387350Y871050D02*
Y881550D01*
X407500Y876300D02*
X418000D01*
X412750Y871050D02*
Y881550D01*
X-94150Y704850D02*
X-83650D01*
X-88900Y699600D02*
Y710100D01*
X-68750Y704850D02*
X-58250D01*
X-63500Y699600D02*
Y710100D01*
X58250Y107950D02*
X68750D01*
X63500Y102700D02*
Y113200D01*
X83650Y107950D02*
X94150D01*
X88900Y102700D02*
Y113200D01*
X731350Y114300D02*
X741850D01*
X736600Y109050D02*
Y119550D01*
X705950Y114300D02*
X716450D01*
X711200Y109050D02*
Y119550D01*
X883750Y704850D02*
X894250D01*
X889000Y699600D02*
Y710100D01*
X858350Y704850D02*
X868850D01*
X863600Y699600D02*
Y710100D01*
X255850Y647100D02*
X264850D01*
X260350Y642600D02*
Y651600D01*
X255850Y699100D02*
X264850D01*
X260350Y694600D02*
Y703600D01*
X255850Y673100D02*
X264850D01*
X260350Y668600D02*
Y677600D01*
X401900Y647100D02*
X410900D01*
X406400Y642600D02*
Y651600D01*
X401900Y699100D02*
X410900D01*
X406400Y694600D02*
Y703600D01*
X401900Y673100D02*
X410900D01*
X406400Y668600D02*
Y677600D01*
X383642Y624699D02*
X390754D01*
X387198Y621143D02*
Y628255D01*
X248768Y723250D02*
X255880D01*
X252324Y719694D02*
Y726806D01*
X584048Y637399D02*
X591160D01*
X587604Y633843D02*
Y640955D01*
X530994Y624699D02*
X538106D01*
X534550Y621143D02*
Y628255D01*
X608940Y716901D02*
X616052D01*
X612496Y713345D02*
Y720457D01*
X267352Y791323D02*
X274464D01*
X270908Y787767D02*
Y794879D01*
X233528Y610983D02*
X240640D01*
X237084Y607427D02*
Y614539D01*
X280264Y660005D02*
X287376D01*
X283820Y656449D02*
Y663561D01*
M02*
